<?xml version="1.0" encoding="UTF-8" standalone="no"?>
<svg
   xmlns:dc="http://purl.org/dc/elements/1.1/"
   xmlns:cc="http://creativecommons.org/ns#"
   xmlns:rdf="http://www.w3.org/1999/02/22-rdf-syntax-ns#"
   xmlns:svg="http://www.w3.org/2000/svg"
   xmlns="http://www.w3.org/2000/svg"
   xmlns:sodipodi="http://sodipodi.sourceforge.net/DTD/sodipodi-0.dtd"
   xmlns:inkscape="http://www.inkscape.org/namespaces/inkscape"
   viewBox="0 0 80 80"
   version="1.1"
   id="svg4"
   sodipodi:docname="favicon.svg"
   inkscape:version="0.92.4 5da689c313, 2019-01-14">
  <metadata
     id="metadata10">
    <rdf:RDF>
      <cc:Work
         rdf:about="">
        <dc:format>image/svg+xml</dc:format>
        <dc:type
           rdf:resource="http://purl.org/dc/dcmitype/StillImage" />
        <dc:title></dc:title>
      </cc:Work>
    </rdf:RDF>
  </metadata>
  <defs
     id="defs8" />
  <sodipodi:namedview
     pagecolor="#ffffff"
     bordercolor="#666666"
     borderopacity="1"
     objecttolerance="10"
     gridtolerance="10"
     guidetolerance="10"
     inkscape:pageopacity="0"
     inkscape:pageshadow="2"
     inkscape:window-width="1920"
     inkscape:window-height="1149"
     id="namedview6"
     showgrid="false"
     inkscape:pagecheckerboard="true"
     inkscape:zoom="4.17193"
     inkscape:cx="52.274656"
     inkscape:cy="66.944396"
     inkscape:window-x="0"
     inkscape:window-y="45"
     inkscape:window-maximized="1"
     inkscape:current-layer="svg4" />
  <path
     style="line-height:normal;text-indent:0;text-align:start;text-decoration:none;text-decoration-line:none;text-decoration-style:solid;text-decoration-color:#000000;text-transform:none;isolation:auto;mix-blend-mode:normal"
     d="m 51,6.2402344 -0.822266,1.1914062 c 0,0 -0.769707,1.1123391 -1.542968,2.4453125 C 48.248135,10.54344 47.857947,11.266221 47.552734,11.960938 47.247522,12.655651 47,13.284 47,14 c 0,2.197334 1.802666,4 4,4 2.197334,0 4,-1.802666 4,-4 0,-0.716 -0.247522,-1.344349 -0.552734,-2.039062 C 54.142053,11.266222 53.751865,10.54344 53.365234,9.8769531 52.591973,8.5439797 51.822266,7.4316406 51.822266,7.4316406 Z"
     id="path937" />
  <path
     style="line-height:normal;text-indent:0;text-align:start;text-decoration:none;text-decoration-line:none;text-decoration-style:solid;text-decoration-color:#000000;text-transform:none;isolation:auto;mix-blend-mode:normal"
     d="m 66,9.2402344 -0.822266,1.1914066 c 0,0 -1.269715,1.836288 -2.542968,4.03125 -0.636627,1.097481 -1.276823,2.286749 -1.769532,3.408203 C 60.372526,18.992547 60,20.007927 60,21 c 0,3.301625 2.698375,6 6,6 3.301625,0 6,-2.698375 6,-6 0,-0.992073 -0.372526,-2.007453 -0.865234,-3.128906 -0.492709,-1.121454 -1.132905,-2.310722 -1.769532,-3.408203 -1.273253,-2.194962 -2.542968,-4.03125 -2.542968,-4.03125 z"
     id="path935" />
  <path
     style="line-height:normal;text-indent:0;text-align:start;text-decoration:none;text-decoration-line:none;text-decoration-style:solid;text-decoration-color:#000000;text-transform:none;isolation:auto;mix-blend-mode:normal;fill:#f8f9fa;fill-opacity:1"
     d="m 51,9.8730469 c 0.257476,0.4007891 0.318077,0.4618941 0.634766,1.0078121 0.363369,0.626389 0.723181,1.299136 0.980468,1.884766 C 52.872522,13.351255 53,13.8875 53,14 c 0,1.116666 -0.883334,2 -2,2 -1.116666,0 -2,-0.883334 -2,-2 0,-0.1125 0.127478,-0.648745 0.384766,-1.234375 0.257287,-0.58563 0.617099,-1.258377 0.980468,-1.884766 C 50.681923,10.334941 50.742524,10.273836 51,9.8730469 Z"
     id="path933" />
  <path
     style="line-height:normal;text-indent:0;text-align:start;text-decoration:none;text-decoration-line:none;text-decoration-style:solid;text-decoration-color:#000000;text-transform:none;isolation:auto;mix-blend-mode:normal;fill:#f8f9fa;fill-opacity:1"
     d="m 66,12.873047 c 0.45617,0.685966 0.81857,1.18671 1.634766,2.59375 0.613373,1.057394 1.223177,2.196594 1.667968,3.208984 C 69.747526,19.688172 70,20.611573 70,21 c 0,2.220375 -1.779625,4 -4,4 -2.220375,0 -4,-1.779625 -4,-4 0,-0.388427 0.252474,-1.311828 0.697266,-2.324219 0.444791,-1.01239 1.054595,-2.15159 1.667968,-3.208984 C 65.18143,14.059757 65.54383,13.559013 66,12.873047 Z"
     id="path931" />
  <path
     style="line-height:normal;text-indent:0;text-align:start;text-decoration:none;text-decoration-line:none;text-decoration-style:solid;text-decoration-color:#000000;text-transform:none;isolation:auto;mix-blend-mode:normal"
     d="m 35.787109,15.421875 -8.634765,8.023437 c -0.179836,0.07879 -3.215125,1.396839 -6.91211,3.742188 -3.770068,2.391714 -8.067163,5.723479 -10.220703,9.816406 C 8.7630563,38.672294 8,40.748714 8,43 v 15 c 0,6.615466 5.384534,12 12,12 h 9 7 18 c 2.749516,0 5,-2.250484 5,-5 0,-1.144984 -0.455322,-2.154577 -1.109375,-3 H 62.5 C 65.525577,62 68,59.525577 68,56.5 68,55.142567 67.449414,53.936471 66.626953,52.974609 69.591076,52.902651 72,50.480661 72,47.5 72,44.474423 69.525577,42 66.5,42 H 65.644531 C 66.455026,41.041389 67,39.846363 67,38.5 67,35.474423 64.525577,33 61.5,33 H 36 33.027344 l 4.658203,-4.542969 c 3.121186,-3.043413 3.131015,-8.088419 0.02344,-11.144531 z"
     id="path929" />
  <path
     style="line-height:normal;text-indent:0;text-align:start;text-decoration:none;text-decoration-line:none;text-decoration-style:solid;text-decoration-color:#000000;text-transform:none;isolation:auto;mix-blend-mode:normal;fill:#f8f9fa;fill-opacity:1"
     d="m 35.748049,18.189453 0.558594,0.548828 c 2.326419,2.287889 2.319237,6.008523 -0.01758,8.28711 L 28.111328,35 H 36 61.5 c 1.944423,0 3.5,1.555577 3.5,3.5 0,1.944423 -1.555577,3.5 -3.5,3.5 v 2 h 5 c 1.944423,0 3.5,1.555577 3.5,3.5 0,1.944423 -1.555577,3.5 -3.5,3.5 h -4 v 2 c 1.944423,0 3.5,1.555577 3.5,3.5 0,1.944423 -1.555577,3.5 -3.5,3.5 H 54 v 2 c 1.668484,0 3,1.331516 3,3 0,1.668484 -1.331516,3 -3,3 H 36 29 20 C 14.465466,68 10,63.534534 10,58 V 43 c 0,-1.818167 0.60991,-3.480717 1.632812,-4.826172 l 0.05274,-0.07031 0.04101,-0.07617 c 1.816888,-3.53028 5.920124,-6.824816 9.585938,-9.150391 3.665814,-2.325575 6.839844,-3.707031 6.839844,-3.707031 l 0.15625,-0.06836 z"
     id="path927" />
  <path
     style="line-height:normal;text-indent:0;text-align:start;text-decoration:none;text-decoration-line:none;text-decoration-style:solid;text-decoration-color:#000000;text-transform:none;isolation:auto;mix-blend-mode:normal"
     d="m 43,42 a 1,1 0 0 0 -1,1 1,1 0 0 0 1,1 1,1 0 0 0 1,-1 1,1 0 0 0 -1,-1 z"
     id="path925" />
  <path
     style="line-height:normal;text-indent:0;text-align:start;text-decoration:none;text-decoration-line:none;text-decoration-style:solid;text-decoration-color:#000000;text-transform:none;isolation:auto;mix-blend-mode:normal"
     d="m 47,42 a 1,1 0 0 0 -1,1 1,1 0 0 0 1,1 1,1 0 0 0 1,-1 1,1 0 0 0 -1,-1 z"
     id="path923" />
  <path
     style="line-height:normal;text-indent:0;text-align:start;text-decoration:none;text-decoration-line:none;text-decoration-style:solid;text-decoration-color:#000000;text-transform:none;isolation:auto;mix-blend-mode:normal"
     d="m 51,42 a 1,1 0 0 0 -1,1 1,1 0 0 0 1,1 1,1 0 0 0 1,-1 1,1 0 0 0 -1,-1 z"
     id="path921" />
  <path
     style="line-height:normal;text-indent:0;text-align:start;text-decoration:none;text-decoration-line:none;text-decoration-style:solid;text-decoration-color:#000000;text-transform:none;isolation:auto;mix-blend-mode:normal"
     d="m 55,42 a 1,1 0 0 0 -1,1 1,1 0 0 0 1,1 1,1 0 0 0 1,-1 1,1 0 0 0 -1,-1 z"
     id="path919" />
  <path
     style="line-height:normal;text-indent:0;text-align:start;text-decoration:none;text-decoration-line:none;text-decoration-style:solid;text-decoration-color:#000000;text-transform:none;isolation:auto;mix-blend-mode:normal"
     d="m 59,42 a 1,1 0 0 0 -1,1 1,1 0 0 0 1,1 1,1 0 0 0 1,-1 1,1 0 0 0 -1,-1 z"
     id="path917" />
  <path
     style="line-height:normal;text-indent:0;text-align:start;text-decoration:none;text-decoration-line:none;text-decoration-style:solid;text-decoration-color:#000000;text-transform:none;isolation:auto;mix-blend-mode:normal"
     d="m 43,51 a 1,1 0 0 0 -1,1 1,1 0 0 0 1,1 1,1 0 0 0 1,-1 1,1 0 0 0 -1,-1 z"
     id="path915" />
  <path
     style="line-height:normal;text-indent:0;text-align:start;text-decoration:none;text-decoration-line:none;text-decoration-style:solid;text-decoration-color:#000000;text-transform:none;isolation:auto;mix-blend-mode:normal"
     d="m 47,51 a 1,1 0 0 0 -1,1 1,1 0 0 0 1,1 1,1 0 0 0 1,-1 1,1 0 0 0 -1,-1 z"
     id="path913" />
  <path
     style="line-height:normal;text-indent:0;text-align:start;text-decoration:none;text-decoration-line:none;text-decoration-style:solid;text-decoration-color:#000000;text-transform:none;isolation:auto;mix-blend-mode:normal"
     d="m 51,51 a 1,1 0 0 0 -1,1 1,1 0 0 0 1,1 1,1 0 0 0 1,-1 1,1 0 0 0 -1,-1 z"
     id="path911" />
  <path
     style="line-height:normal;text-indent:0;text-align:start;text-decoration:none;text-decoration-line:none;text-decoration-style:solid;text-decoration-color:#000000;text-transform:none;isolation:auto;mix-blend-mode:normal"
     d="m 55,51 a 1,1 0 0 0 -1,1 1,1 0 0 0 1,1 1,1 0 0 0 1,-1 1,1 0 0 0 -1,-1 z"
     id="path909" />
  <path
     style="line-height:normal;text-indent:0;text-align:start;text-decoration:none;text-decoration-line:none;text-decoration-style:solid;text-decoration-color:#000000;text-transform:none;isolation:auto;mix-blend-mode:normal"
     d="m 59,51 a 1,1 0 0 0 -1,1 1,1 0 0 0 1,1 1,1 0 0 0 1,-1 1,1 0 0 0 -1,-1 z"
     id="path907" />
  <path
     style="line-height:normal;text-indent:0;text-align:start;text-decoration:none;text-decoration-line:none;text-decoration-style:solid;text-decoration-color:#000000;text-transform:none;isolation:auto;mix-blend-mode:normal"
     d="m 43,60 a 1,1 0 0 0 -1,1 1,1 0 0 0 1,1 1,1 0 0 0 1,-1 1,1 0 0 0 -1,-1 z"
     id="path905" />
  <path
     style="line-height:normal;text-indent:0;text-align:start;text-decoration:none;text-decoration-line:none;text-decoration-style:solid;text-decoration-color:#000000;text-transform:none;isolation:auto;mix-blend-mode:normal"
     d="m 47,60 a 1,1 0 0 0 -1,1 1,1 0 0 0 1,1 1,1 0 0 0 1,-1 1,1 0 0 0 -1,-1 z"
     id="path903" />
  <path
     style="line-height:normal;text-indent:0;text-align:start;text-decoration:none;text-decoration-line:none;text-decoration-style:solid;text-decoration-color:#000000;text-transform:none;isolation:auto;mix-blend-mode:normal"
     d="m 51,60 a 1,1 0 0 0 -1,1 1,1 0 0 0 1,1 1,1 0 0 0 1,-1 1,1 0 0 0 -1,-1 z"
     id="path2" />
</svg>
