<?xml version="1.0" encoding="UTF-8" standalone="no"?>
<!-- Created with Inkscape (http://www.inkscape.org/) -->

<svg
   xmlns:dc="http://purl.org/dc/elements/1.1/"
   xmlns:cc="http://creativecommons.org/ns#"
   xmlns:rdf="http://www.w3.org/1999/02/22-rdf-syntax-ns#"
   xmlns:svg="http://www.w3.org/2000/svg"
   xmlns="http://www.w3.org/2000/svg"
   xmlns:sodipodi="http://sodipodi.sourceforge.net/DTD/sodipodi-0.dtd"
   xmlns:inkscape="http://www.inkscape.org/namespaces/inkscape"
   width=".37591pt"
   height="1pt"
   version="1.1"
   viewBox="0 0 .13261 .35278"
   id="svg823"
   sodipodi:docname="man_abc.svg"
   inkscape:export-filename="/home/privacy/workspace-misc/project-covid19/covid19-web-monitor/static/man_a.png"
   inkscape:export-xdpi="1742.4269"
   inkscape:export-ydpi="1742.4269"
   inkscape:version="0.92.4 5da689c313, 2019-01-14">
  <defs
     id="defs827" />
  <sodipodi:namedview
     pagecolor="#ffffff"
     bordercolor="#666666"
     borderopacity="1"
     objecttolerance="10"
     gridtolerance="10"
     guidetolerance="10"
     inkscape:pageopacity="0"
     inkscape:pageshadow="2"
     inkscape:window-width="1920"
     inkscape:window-height="1149"
     id="namedview825"
     showgrid="false"
     inkscape:zoom="256"
     inkscape:cx="1.4381319"
     inkscape:cy="0.68013969"
     inkscape:window-x="0"
     inkscape:window-y="45"
     inkscape:window-maximized="1"
     inkscape:current-layer="svg823"
     inkscape:pagecheckerboard="true" />
  <metadata
     id="metadata815">
    <rdf:RDF>
      <cc:Work
         rdf:about="">
        <dc:format>image/svg+xml</dc:format>
        <dc:type
           rdf:resource="http://purl.org/dc/dcmitype/StillImage" />
        <dc:title></dc:title>
      </cc:Work>
    </rdf:RDF>
  </metadata>
  <g
     id="g821"
     style="fill:#ffffff;stroke-width:0.00500003;stroke-miterlimit:4;stroke-dasharray:none;stroke:#52514c;stroke-opacity:1;fill-opacity:1"
     stroke-width=".0079525"
     stroke="#1a1a1a"
     fill="#84acdf">
    <path
       d="m0.0039762 0.10772v0.0894c0 8e-3 7e-3 0.0145 0.0143 0.0147 0.01 2.3e-4 0.0149-7e-3 0.0149-0.015v-0.0789c0.0010001 0.0722 5.6992e-4 0.15166 5.6013e-4 0.21548 0 9e-3 7e-3 0.0154 0.0154 0.0154 9e-3 0 0.0169-7e-3 0.0169-0.0154v-0.11682h6.9003e-4v0.11682c0 9e-3 8e-3 0.0154 0.0167 0.0154 9e-3 0 0.0154-7e-3 0.0154-0.0154v-0.21539c4.4e-4 0.0208 4.1011e-4 0.0549 4.1011e-4 0.0792 0 8e-3 6e-3 0.0147 0.0151 0.0147 7e-3 0 0.0143-6e-3 0.0143-0.0147v-0.0885c-2e-3 -0.0278-0.0459-0.0355-0.0628-0.0356-0.0304 5.1999e-4 -0.059 0.0144-0.0618 0.0346z"
       id="path817"
       style="fill:#ffffff;stroke-width:0.00500003;stroke-miterlimit:4;stroke-dasharray:none;stroke:#52514c;stroke-opacity:1;fill-opacity:1"
       stroke-linejoin="round" />
    <circle
       cx=".066952"
       cy=".037228"
       r=".033287"
       id="circle819"
       style="fill:#ffffff;stroke-width:0.00500003;stroke-miterlimit:4;stroke-dasharray:none;stroke:#52514c;stroke-opacity:1;fill-opacity:1"
       stroke-linecap="round" />
  </g>
</svg>
